<svg width="265" height="231" viewBox="0 0 265 231" fill="none" xmlns="http://www.w3.org/2000/svg">
<path d="M230.829 180.65L230.709 180.42L136.239 16.8799C130.199 6.4199 119.389 0.169883 107.309 0.129883C107.279 0.129883 107.249 0.129883 107.219 0.129883C107.209 0.129883 107.199 0.129883 107.189 0.129883C95.0695 0.139883 84.2194 6.4199 78.1694 16.9199L75.6895 21.2199L97.7894 34.2699L100.409 29.7199C102.449 26.1799 105.839 25.7899 107.199 25.7899C107.199 25.7899 107.199 25.7899 107.209 25.7899C107.239 25.7899 107.269 25.7899 107.299 25.7899C108.719 25.8099 111.999 26.2499 113.999 29.7099L208.189 192.76C210.189 196.75 208.849 200.42 207.069 202.39L228.509 216.6C236.049 206.17 237.049 192.47 230.829 180.65Z" fill="url(#paint0_linear_51_13)"/>
<path d="M107.22 0.130117C107.21 0.130117 107.2 0.130117 107.19 0.130117C95.0702 0.140117 84.2202 6.4201 78.1702 16.9201L4.88021 144.23C-2.01979 156.21 -0.919796 170.95 7.6702 181.78C7.7002 181.82 7.7302 181.85 7.7602 181.88C12.9802 188.4 20.2102 192.56 28.0302 193.95L38.4302 167.51L35.7702 168.57C31.4202 169.67 28.7502 167.04 27.7802 165.82C27.7402 165.77 27.7002 165.72 27.6602 165.66C26.6302 164.3 24.8202 161.04 27.1302 157.03L31.0202 150.28L100.42 29.7201C102.46 26.1801 105.85 25.7901 107.21 25.7901C107.21 25.7901 107.21 25.7901 107.22 25.7901C107.25 25.7901 107.28 25.7901 107.31 25.7901V0.120117C107.29 0.130117 107.26 0.130117 107.22 0.130117Z" fill="url(#paint1_linear_51_13)"/>
<path d="M230.829 180.65L230.71 180.42L219.76 161.46L196.18 171.96L208.2 192.77C210.2 196.76 208.859 200.43 207.079 202.4C207.069 202.41 207.07 202.42 207.06 202.43C205.42 204.22 202.4 205.91 197.26 203.78L132.18 176.77L66.9595 203.77C63.3495 205.27 60.0095 205.12 57.5795 203.32C55.6795 201.92 54.6495 199.71 54.7995 197.39C54.8695 196.62 55.1195 195.07 56.0195 193.5L72.5295 164.93L49.2495 153.92L33.7695 180.71C30.7095 186.07 29.6195 191.22 29.2695 194.82H29.2595C29.2495 194.93 29.2495 195.03 29.2395 195.14C29.0795 196.89 29.0995 198.22 29.1395 199C29.4695 208.88 34.2295 218.02 42.3795 224.01C52.0595 231.14 64.9495 232.44 76.8195 227.49L132.18 204.57L187.44 227.51C192.22 229.49 197.07 230.46 201.79 230.46C210.98 230.46 219.62 226.78 226.03 219.75C226.94 218.75 227.76 217.7 228.53 216.63C236.05 206.17 237.049 192.47 230.829 180.65Z" fill="url(#paint2_linear_51_13)"/>
<path d="M260.03 144.49L186.53 16.8901C182.55 9.9901 176.5 4.9301 169.38 2.2601C168.1 1.7801 166.78 1.3801 165.43 1.0501C165.26 1.0101 165.1 0.970098 164.93 0.930098C164.56 0.850098 164.19 0.770097 163.82 0.700097C163.43 0.630097 163.03 0.560097 162.63 0.500097C162.3 0.450097 161.96 0.400107 161.62 0.360107C161.15 0.300107 160.69 0.250107 160.21 0.220107C160 0.200107 159.8 0.190098 159.59 0.180098C158.94 0.140098 158.29 0.110107 157.63 0.110107C157.59 0.110107 157.55 0.110107 157.5 0.110107C157.49 0.110107 157.48 0.110107 157.48 0.110107C145.37 0.110107 134.53 6.3701 128.47 16.8501L122.99 26.3301C129.45 31.8301 137.27 38.4201 142.91 43.1701L150.7 29.7001C152.74 26.1601 156.13 25.7801 157.49 25.7801C157.53 25.7801 157.59 25.7801 157.64 25.7801C159.08 25.8101 162.31 26.2801 164.28 29.7101L167.12 34.6401L237.78 157.31C240.18 161.48 238.12 164.85 237.13 166.1C237.1 166.14 237.06 166.18 237.03 166.23C235.99 167.49 233.35 169.92 229.14 168.85L218.81 164.72L217.8 191.96L220.24 192.93L221.28 193.29C234.52 197.3 248.64 192.9 257.24 182.06C257.3 181.99 257.34 181.91 257.4 181.84C265.84 171.03 266.89 156.4 260.03 144.49Z" fill="url(#paint3_linear_51_13)"/>
<path d="M237.03 166.22C235.99 167.48 233.35 169.91 229.14 168.84L132.19 130.11L94.07 145.31L35.78 168.56C31.43 169.66 28.76 167.03 27.79 165.81C27.75 165.76 27.71 165.71 27.67 165.65C26.64 164.29 24.83 161.03 27.14 157.02L31.03 150.27L8.65998 137.67L4.88998 144.21C-2.01002 156.19 -0.910034 170.93 7.67997 181.76C7.70997 181.8 7.73998 181.83 7.76998 181.86C16.37 192.61 30.43 196.99 43.62 193.01L44.15 192.85L104.05 168.96L132.18 157.74L220.23 192.91L221.27 193.27C234.51 197.28 248.63 192.88 257.23 182.04C257.29 181.97 257.33 181.89 257.39 181.82L237.03 166.22Z" fill="url(#paint4_linear_51_13)"/>
<path d="M186.53 16.9001C180.5 6.4401 169.71 0.170117 157.64 0.120117C157.6 0.120117 157.56 0.120117 157.51 0.120117C157.5 0.120117 157.49 0.120117 157.49 0.120117C145.38 0.120117 134.54 6.3801 128.48 16.8601L33.7799 180.71C28.7199 189.56 29.0499 197.89 29.1699 199.47L54.7699 197.56C54.7699 197.56 54.7899 197.68 54.7899 197.92C54.7899 197.9 54.7799 195.71 56.0399 193.51L150.71 29.7101C152.75 26.1701 156.14 25.7901 157.5 25.7901C157.54 25.7901 157.6 25.7901 157.65 25.7901C159.09 25.8201 162.32 26.2901 164.29 29.7201L169.63 38.9801L189.84 22.6401L186.53 16.9001Z" fill="url(#paint5_linear_51_13)"/>
<defs>
<linearGradient id="paint0_linear_51_13" x1="103.067" y1="11.2397" x2="215.244" y2="211.651" gradientUnits="userSpaceOnUse">
<stop stop-color="#FF7516"/>
<stop offset="0.2377" stop-color="#FF6E19"/>
<stop offset="0.5906" stop-color="#FF5A20"/>
<stop offset="1" stop-color="#FF3A2C"/>
</linearGradient>
<linearGradient id="paint1_linear_51_13" x1="5.61581" y1="182.917" x2="115.133" y2="4.232" gradientUnits="userSpaceOnUse">
<stop offset="0.1586" stop-color="#FFAA00"/>
<stop offset="0.3568" stop-color="#FFA303"/>
<stop offset="0.6504" stop-color="#FF8F0B"/>
<stop offset="0.9334" stop-color="#FF7516"/>
<stop offset="1" stop-color="#FF7516" stop-opacity="0.5"/>
</linearGradient>
<linearGradient id="paint2_linear_51_13" x1="211.473" y1="191.275" x2="42.3204" y2="193.048" gradientUnits="userSpaceOnUse">
<stop stop-color="#FF3A2C"/>
<stop offset="0.2593" stop-color="#FF332F"/>
<stop offset="0.6434" stop-color="#FF1F36"/>
<stop offset="0.9334" stop-color="#FF0B3D"/>
</linearGradient>
<linearGradient id="paint3_linear_51_13" x1="142.402" y1="14.3492" x2="249.259" y2="175.299" gradientUnits="userSpaceOnUse">
<stop stop-color="#FF5323"/>
<stop offset="0.2219" stop-color="#FF5A20"/>
<stop offset="0.5513" stop-color="#FF6E18"/>
<stop offset="0.9334" stop-color="#FF8E0C"/>
<stop offset="1" stop-color="#FF8E0C"/>
</linearGradient>
<linearGradient id="paint4_linear_51_13" x1="16.9819" y1="163.583" x2="240.006" y2="162.031" gradientUnits="userSpaceOnUse">
<stop stop-color="#FFAA00" stop-opacity="0.3"/>
<stop offset="0.0565" stop-color="#FFAA00"/>
<stop offset="0.404" stop-color="#FFA303"/>
<stop offset="0.9191" stop-color="#FF8F0C"/>
<stop offset="0.9334" stop-color="#FF8E0C"/>
<stop offset="1" stop-color="#FF8E0C" stop-opacity="0.4"/>
</linearGradient>
<linearGradient id="paint5_linear_51_13" x1="161.156" y1="16.415" x2="59.0655" y2="185.678" gradientUnits="userSpaceOnUse">
<stop stop-color="#FF5323" stop-opacity="0.4"/>
<stop offset="0.0792" stop-color="#FF5323"/>
<stop offset="0.2564" stop-color="#FF4C26"/>
<stop offset="0.5195" stop-color="#FF382D"/>
<stop offset="0.8346" stop-color="#FF1739"/>
<stop offset="0.9334" stop-color="#FF0B3D"/>
<stop offset="1" stop-color="#FF0B3D"/>
</linearGradient>
</defs>
</svg>
