<svg width="1214" height="240" viewBox="0 0 1214 240" fill="none" xmlns="http://www.w3.org/2000/svg">
<g clip-path="url(#clip0_308_121)">
<mask id="mask0_308_121" style="mask-type:luminance" maskUnits="userSpaceOnUse" x="0" y="0" width="1214" height="240">
<path d="M1214 0H0V240H1214V0Z" fill="white"/>
</mask>
<g mask="url(#mask0_308_121)">
<path d="M626.48 92.33C614.63 65.7 589.53 55.24 562.72 55.24C517.01 55.24 486.03 87.97 486.03 133.25C486.03 181.5 518.37 210.95 562.72 210.95C590.11 210.95 616.46 199.2 626.51 172.54L626.48 207.24H658.85V0.52002H626.48V92.33ZM617.67 164.91C608.42 178.17 590.08 183.82 571.67 183.82C541.37 183.82 519.33 165.78 519.33 133.25C519.33 102.78 541.76 82.37 571.67 82.37C590.09 82.37 608.17 88.08 617.42 101.33C623.28 109.66 627.11 120.3 627.11 133.24C627.1 145.89 623.53 156.89 617.67 164.91ZM696.12 58.95H728.49V207.24H696.12V58.95ZM695.45 0.52002H729.46V37.6H695.45V0.52002ZM386.85 55.24C308.85 55.24 311.43 104.33 311.12 110.35V111.55H344.11V110.35C344.42 106.13 343.84 82.41 386.55 82.41C415.59 82.41 429.41 92.88 429.41 112.15V121.09L364.52 124.1C343.86 125 328.76 130.52 319.51 139.55C312.11 146.78 308.41 156.41 308.41 168.46C308.41 179.9 312.11 189.54 319.51 196.77C328.76 205.81 343.56 210.93 363.29 210.93C396.38 210.93 421.11 194.01 429.49 169.48L429.41 207.22H461.79V113.05C461.77 76.93 437.58 55.24 386.85 55.24ZM370.99 185C358.66 185 350.94 182.92 346.62 178.7C343.54 175.69 342.01 172.4 342.01 167.88C342.01 162.76 343.24 159.14 346.63 156.13C350.95 151.61 358.65 149.2 369.14 148.6L429.4 144.38C428.17 160.96 412.3 185 370.99 185ZM906.41 164.57C906.41 176.62 902.71 185.95 895 193.48C883.29 204.92 860.16 210.95 831.8 210.95C785.86 210.95 759.65 192.28 759.65 160.35V158.54H792.33V160.35C792.33 177.52 805.9 185.13 832.72 185.13C865.48 185.13 874.03 177.99 874.03 166.37C874.03 156.43 868.17 150.41 847.21 147.7L812.49 143.78C776.73 138.96 762.24 124.5 762.24 101.31C762.24 89.56 766.25 80.23 773.96 72.7C785.67 61.26 806.22 55.23 834.58 55.23C880.22 55.23 903.37 75.67 904.42 106.27V107.77H871.74V106.27C871.74 89.4 860.42 80.8 833.34 80.8C802.94 80.8 794.92 90.88 794.92 99.49C794.92 109.13 801.7 115.15 821.74 117.86L855.85 121.78C892.53 126.92 906.41 141.08 906.41 164.57ZM982.01 58.95H1039.16V86.08H982.01V155.45C982.01 175.18 992.49 180.11 1012.53 180.11C1020.49 180.11 1039.16 180.2 1039.16 180.2V207.24C1039.16 207.24 1019.58 207.24 1012.84 207.24C969.68 207.24 949.64 193.06 949.64 155.75V86.07H918.25V58.94H949.64V19.25H982.01V58.95ZM1139.08 55.24C1061.08 55.24 1063.66 104.33 1063.35 110.35V111.55H1096.34V110.35C1096.65 106.13 1096.07 82.41 1138.78 82.41C1167.82 82.41 1181.64 92.88 1181.64 112.15V121.09L1116.75 124.1C1096.09 125 1080.99 130.52 1071.74 139.55C1064.34 146.78 1060.64 156.41 1060.64 168.46C1060.64 179.9 1064.34 189.54 1071.74 196.77C1080.99 205.81 1095.79 210.93 1115.52 210.93C1148.61 210.93 1173.34 194.01 1181.72 169.48L1181.64 207.22H1214V113.05C1214 76.93 1189.81 55.24 1139.08 55.24ZM1123.21 185C1110.88 185 1103.16 182.92 1098.84 178.7C1095.76 175.69 1094.23 172.4 1094.23 167.88C1094.23 162.76 1095.46 159.14 1098.85 156.13C1103.17 151.61 1110.87 149.2 1121.36 148.6L1181.62 144.38C1180.4 160.96 1164.53 185 1123.21 185Z" fill="white"/>
<path d="M230.829 189.65L230.709 189.42L136.239 25.8799C130.199 15.4199 119.389 9.16988 107.309 9.12988C107.279 9.12988 107.249 9.12988 107.219 9.12988C107.209 9.12988 107.199 9.12988 107.189 9.12988C95.0695 9.13988 84.2194 15.4199 78.1694 25.9199L75.6895 30.2199L97.7894 43.2699L100.409 38.7199C102.449 35.1799 105.839 34.7899 107.199 34.7899C107.199 34.7899 107.199 34.7899 107.209 34.7899C107.239 34.7899 107.269 34.7899 107.299 34.7899C108.719 34.8099 111.999 35.2499 113.999 38.7099L208.189 201.76C210.189 205.75 208.849 209.42 207.069 211.39L228.509 225.6C236.049 215.17 237.049 201.47 230.829 189.65Z" fill="url(#paint0_linear_308_121)"/>
<path d="M107.22 9.13012C107.21 9.13012 107.2 9.13012 107.19 9.13012C95.0702 9.14012 84.2202 15.4201 78.1702 25.9201L4.88021 153.23C-2.01979 165.21 -0.919796 179.95 7.6702 190.78C7.7002 190.82 7.7302 190.85 7.7602 190.88C12.9802 197.4 20.2102 201.56 28.0302 202.95L38.4302 176.51L35.7702 177.57C31.4202 178.67 28.7502 176.04 27.7802 174.82C27.7402 174.77 27.7002 174.72 27.6602 174.66C26.6302 173.3 24.8202 170.04 27.1302 166.03L31.0202 159.28L100.42 38.7201C102.46 35.1801 105.85 34.7901 107.21 34.7901C107.21 34.7901 107.21 34.7901 107.22 34.7901C107.25 34.7901 107.28 34.7901 107.31 34.7901V9.12012C107.29 9.13012 107.26 9.13012 107.22 9.13012Z" fill="url(#paint1_linear_308_121)"/>
<path d="M230.829 189.65L230.71 189.42L219.76 170.46L196.18 180.96L208.2 201.77C210.2 205.76 208.859 209.43 207.079 211.4C207.069 211.41 207.07 211.42 207.06 211.43C205.42 213.22 202.4 214.91 197.26 212.78L132.18 185.77L66.9595 212.77C63.3495 214.27 60.0095 214.12 57.5795 212.32C55.6795 210.92 54.6495 208.71 54.7995 206.39C54.8695 205.62 55.1195 204.07 56.0195 202.5L72.5295 173.93L49.2495 162.92L33.7695 189.71C30.7095 195.07 29.6195 200.22 29.2695 203.82H29.2595C29.2495 203.93 29.2495 204.03 29.2395 204.14C29.0795 205.89 29.0995 207.22 29.1395 208C29.4695 217.88 34.2295 227.02 42.3795 233.01C52.0595 240.14 64.9495 241.44 76.8195 236.49L132.18 213.57L187.44 236.51C192.22 238.49 197.07 239.46 201.79 239.46C210.98 239.46 219.62 235.78 226.03 228.75C226.94 227.75 227.76 226.7 228.53 225.63C236.05 215.17 237.049 201.47 230.829 189.65Z" fill="url(#paint2_linear_308_121)"/>
<path d="M260.03 153.49L186.53 25.8901C182.55 18.9901 176.5 13.9301 169.38 11.2601C168.1 10.7801 166.78 10.3801 165.43 10.0501C165.26 10.0101 165.1 9.9701 164.93 9.9301C164.56 9.8501 164.19 9.7701 163.82 9.7001C163.43 9.6301 163.03 9.5601 162.63 9.5001C162.3 9.4501 161.96 9.40011 161.62 9.36011C161.15 9.30011 160.69 9.25011 160.21 9.22011C160 9.20011 159.8 9.1901 159.59 9.1801C158.94 9.1401 158.29 9.11011 157.63 9.11011C157.59 9.11011 157.55 9.11011 157.5 9.11011C157.49 9.11011 157.48 9.11011 157.48 9.11011C145.37 9.11011 134.53 15.3701 128.47 25.8501L122.99 35.3301C129.45 40.8301 137.27 47.4201 142.91 52.1701L150.7 38.7001C152.74 35.1601 156.13 34.7801 157.49 34.7801C157.53 34.7801 157.59 34.7801 157.64 34.7801C159.08 34.8101 162.31 35.2801 164.28 38.7101L167.12 43.6401L237.78 166.31C240.18 170.48 238.12 173.85 237.13 175.1C237.1 175.14 237.06 175.18 237.03 175.23C235.99 176.49 233.35 178.92 229.14 177.85L218.81 173.72L217.8 200.96L220.24 201.93L221.28 202.29C234.52 206.3 248.64 201.9 257.24 191.06C257.3 190.99 257.34 190.91 257.4 190.84C265.84 180.03 266.89 165.4 260.03 153.49Z" fill="url(#paint3_linear_308_121)"/>
<path d="M237.03 175.22C235.99 176.48 233.35 178.91 229.14 177.84L132.19 139.11L94.07 154.31L35.78 177.56C31.43 178.66 28.76 176.03 27.79 174.81C27.75 174.76 27.71 174.71 27.67 174.65C26.64 173.29 24.83 170.03 27.14 166.02L31.03 159.27L8.65998 146.67L4.88998 153.21C-2.01002 165.19 -0.910032 179.93 7.67997 190.76C7.70997 190.8 7.73998 190.83 7.76998 190.86C16.37 201.61 30.43 205.99 43.62 202.01L44.15 201.85L104.05 177.96L132.18 166.74L220.23 201.91L221.27 202.27C234.51 206.28 248.63 201.88 257.23 191.04C257.29 190.97 257.33 190.89 257.39 190.82L237.03 175.22Z" fill="url(#paint4_linear_308_121)"/>
<path d="M186.53 25.9001C180.5 15.4401 169.71 9.17012 157.64 9.12012C157.6 9.12012 157.56 9.12012 157.51 9.12012C157.5 9.12012 157.49 9.12012 157.49 9.12012C145.38 9.12012 134.54 15.3801 128.48 25.8601L33.7799 189.71C28.7199 198.56 29.0499 206.89 29.1699 208.47L54.7699 206.56C54.7699 206.56 54.7899 206.68 54.7899 206.92C54.7899 206.9 54.7799 204.71 56.0399 202.51L150.71 38.7101C152.75 35.1701 156.14 34.7901 157.5 34.7901C157.54 34.7901 157.6 34.7901 157.65 34.7901C159.09 34.8201 162.32 35.2901 164.29 38.7201L169.63 47.9801L189.84 31.6401L186.53 25.9001Z" fill="url(#paint5_linear_308_121)"/>
</g>
</g>
<defs>
<linearGradient id="paint0_linear_308_121" x1="103.067" y1="20.2397" x2="215.244" y2="220.651" gradientUnits="userSpaceOnUse">
<stop stop-color="#FF7516"/>
<stop offset="0.2377" stop-color="#FF6E19"/>
<stop offset="0.5906" stop-color="#FF5A20"/>
<stop offset="1" stop-color="#FF3A2C"/>
</linearGradient>
<linearGradient id="paint1_linear_308_121" x1="5.61581" y1="191.917" x2="115.133" y2="13.232" gradientUnits="userSpaceOnUse">
<stop offset="0.1586" stop-color="#FFAA00"/>
<stop offset="0.3568" stop-color="#FFA303"/>
<stop offset="0.6504" stop-color="#FF8F0B"/>
<stop offset="0.9334" stop-color="#FF7516"/>
<stop offset="1" stop-color="#FF7516" stop-opacity="0.5"/>
</linearGradient>
<linearGradient id="paint2_linear_308_121" x1="211.473" y1="200.275" x2="42.3204" y2="202.048" gradientUnits="userSpaceOnUse">
<stop stop-color="#FF3A2C"/>
<stop offset="0.2593" stop-color="#FF332F"/>
<stop offset="0.6434" stop-color="#FF1F36"/>
<stop offset="0.9334" stop-color="#FF0B3D"/>
</linearGradient>
<linearGradient id="paint3_linear_308_121" x1="142.402" y1="23.3492" x2="249.259" y2="184.299" gradientUnits="userSpaceOnUse">
<stop stop-color="#FF5323"/>
<stop offset="0.2219" stop-color="#FF5A20"/>
<stop offset="0.5513" stop-color="#FF6E18"/>
<stop offset="0.9334" stop-color="#FF8E0C"/>
<stop offset="1" stop-color="#FF8E0C"/>
</linearGradient>
<linearGradient id="paint4_linear_308_121" x1="16.9819" y1="172.583" x2="240.006" y2="171.031" gradientUnits="userSpaceOnUse">
<stop stop-color="#FFAA00" stop-opacity="0.3"/>
<stop offset="0.0565" stop-color="#FFAA00"/>
<stop offset="0.404" stop-color="#FFA303"/>
<stop offset="0.9191" stop-color="#FF8F0C"/>
<stop offset="0.9334" stop-color="#FF8E0C"/>
<stop offset="1" stop-color="#FF8E0C" stop-opacity="0.4"/>
</linearGradient>
<linearGradient id="paint5_linear_308_121" x1="161.156" y1="25.415" x2="59.0655" y2="194.678" gradientUnits="userSpaceOnUse">
<stop stop-color="#FF5323" stop-opacity="0.4"/>
<stop offset="0.0792" stop-color="#FF5323"/>
<stop offset="0.2564" stop-color="#FF4C26"/>
<stop offset="0.5195" stop-color="#FF382D"/>
<stop offset="0.8346" stop-color="#FF1739"/>
<stop offset="0.9334" stop-color="#FF0B3D"/>
<stop offset="1" stop-color="#FF0B3D"/>
</linearGradient>
<clipPath id="clip0_308_121">
<rect width="1214" height="240" fill="white"/>
</clipPath>
</defs>
</svg>
