<svg width="155" height="46" viewBox="0 0 155 46" fill="none" xmlns="http://www.w3.org/2000/svg">
<g clip-path="url(#clip0_1_2)">
<path d="M51.48 30V15.2H55.8C57.62 15.2 59.42 15.64 60.62 16.42C63.22 18.04 63.98 20.86 63.98 22.64C63.98 24.02 63.44 26.98 60.62 28.78C59.42 29.56 57.62 30 55.8 30H51.48ZM52.96 16.54V28.66H55.1C56.44 28.66 58.48 28.66 60.18 27.46C61.08 26.7 62.5 25.16 62.5 22.58C62.5 20.62 61.52 18.8 59.98 17.68C58.66 16.82 57.28 16.54 55.1 16.54H52.96ZM77.0428 25.04H67.0828C67.1828 27.18 69.1828 29 71.3228 29C73.3228 28.96 74.7428 27.78 75.2428 26.42H76.7228C75.9628 28.6 73.8628 30.26 71.3428 30.26C68.2828 30.26 65.6428 27.78 65.6428 24.54C65.6428 21.44 68.1428 18.84 71.3228 18.78C73.7228 18.8 75.4228 20.22 76.2028 21.58C76.8428 22.62 77.0628 23.68 77.0628 24.64C77.0628 24.78 77.0428 24.9 77.0428 25.04ZM67.0828 23.78H75.6228C75.1828 21.2 73.0828 20.04 71.3428 20.04C69.6228 20.04 67.4828 21.2 67.0828 23.78ZM79.9706 30V20.32H78.2706V19.06H79.9706C80.0106 17.54 80.1306 14.98 84.1706 14.94V16.24C81.4106 16.24 81.3706 17.94 81.3706 18.98V19.06H84.1706V20.32H81.3706V30H79.9706ZM85.4797 30V19.06H86.8797V30H85.4797ZM85.4797 17.72V15.2H86.8797V17.72H85.4797ZM89.4836 30V19.06H90.8836V20.46H90.9236C91.3436 19.8 92.4236 18.78 94.2836 18.78C95.6236 18.78 96.7436 19.12 97.7436 20.12C98.5636 20.92 99.1036 22.18 99.1036 23.98V30H97.7036V23.98C97.7036 22.56 97.2636 21.56 96.6636 20.98C95.9036 20.24 94.9036 20.04 94.2836 20.04C93.6636 20.04 92.6636 20.24 91.9036 20.98C91.3236 21.54 90.8836 22.52 90.8836 23.88V30H89.4836ZM101.691 30V19.06H103.091V30H101.691ZM101.691 17.72V15.2H103.091V17.72H101.691ZM107.115 19.06V20.32C107.735 19.34 108.815 18.78 110.095 18.78C111.675 18.78 113.015 19.54 113.775 20.88C114.635 19.5 115.895 18.78 117.455 18.78C120.035 18.78 121.835 20.58 121.835 23.5V30H120.435V23.66C120.435 21.32 119.315 20.04 117.455 20.04C115.595 20.04 114.475 21.32 114.475 23.66V30H113.075V23.66C113.075 21.32 111.955 20.04 110.095 20.04C108.235 20.04 107.115 21.32 107.115 23.66V30H105.715V19.06H107.115ZM135.584 19.06V30H134.184V28.08H134.144C132.944 29.88 131.024 30.26 129.884 30.26C126.444 30.26 124.004 27.64 124.004 24.5C124.004 21.58 126.304 18.78 129.884 18.78C131.064 18.78 132.984 19.16 134.144 20.98H134.184V19.06H135.584ZM125.404 24.56C125.404 27 127.204 29 129.884 29C132.244 29 134.264 27.1 134.264 24.54C134.264 22.14 132.404 20.04 129.884 20.04C127.484 20.04 125.404 21.78 125.404 24.56Z" fill="white"/>
<path fill-rule="evenodd" clip-rule="evenodd" d="M26.6982 36.5799C25.2714 37.0697 23.7177 36.3106 23.2275 34.8834C22.7378 33.4566 23.4973 31.9034 24.9241 31.4132C26.3504 30.923 27.9045 31.6825 28.3947 33.1093C28.8845 34.5361 28.125 36.0902 26.6982 36.5799ZM13.1633 43.1245L2.87503 13.1627L10.2755 10.6218C16.7518 8.80985 26.0615 8.15671 30.2766 20.4313C31.9466 25.2944 31.7253 29.0645 30.4646 32.0043C29.4249 29.5939 26.6904 28.352 24.1664 29.2187C21.5168 30.1284 20.1069 33.0139 21.0166 35.663C21.5365 37.1778 22.7026 38.2842 24.1007 38.7872C22.7624 39.5868 21.3822 40.2254 20.0873 40.747L13.1633 43.1245ZM43.125 32.8368L29.4924 37.5179C33.0393 33.9194 35.3621 28.3452 32.4172 19.7694C29.4714 11.1896 24.4471 8.13663 19.5542 7.43602L32.8367 2.875L43.125 32.8368ZM34.2425 0L0 11.7579L11.7575 46L46 34.2421L34.2425 0Z" fill="url(#paint0_linear_1_2)"/>
</g>
<defs>
<linearGradient id="paint0_linear_1_2" x1="1.61506e-05" y1="951.06" x2="4600" y2="3467.97" gradientUnits="userSpaceOnUse">
<stop stop-color="#EA0069"/>
<stop offset="1" stop-color="#FC6767"/>
</linearGradient>
<clipPath id="clip0_1_2">
<rect width="155" height="46" fill="white"/>
</clipPath>
</defs>
</svg>
