<svg width="147" height="45" viewBox="0 0 147 45" fill="none" xmlns="http://www.w3.org/2000/svg">
<path fill-rule="evenodd" clip-rule="evenodd" d="M143.128 18.8088L142.612 18.4237C144.16 16.883 145.063 15.2782 144.999 13.0314C144.805 13.0956 144.612 13.0956 144.418 13.0956C143.322 13.0956 141.902 12.0685 141.902 10.4636C141.902 9.05136 142.805 7.96006 144.289 7.96006C145.966 7.96006 146.998 9.17974 146.998 11.0414C147.063 14.5078 145.515 16.4337 143.128 18.8088ZM128.873 35.9486C128.099 35.9486 127.454 35.8845 126.487 35.8203C126.487 39.9287 126.551 40.8274 126.745 44.7432L126.487 45H124.1L123.842 44.7432C123.907 40.2496 123.971 35.7561 123.971 31.2625C123.971 23.2382 123.842 20.3495 123.649 16.3695L123.842 16.1127L126.164 15.7917L126.422 16.0485L126.358 17.8459C127.454 16.9472 129.196 15.535 132.292 15.535C137.645 15.535 140.999 19.7076 140.999 25.1641C140.999 27.2183 140.419 29.8502 138.806 31.9044C137.065 34.2796 134.356 35.9486 128.873 35.9486ZM131.969 17.9101C130.744 17.9101 129.454 18.2311 128.293 18.8088C127.39 19.2582 127.003 19.6434 126.422 20.2211V33.766C127.39 33.8944 127.906 33.8944 128.615 33.8944C130.873 33.8944 133.195 33.5735 135.065 32.2254C136.033 31.5835 138.355 29.5292 138.355 25.3566C138.355 22.1469 136.871 17.9101 131.969 17.9101ZM109.91 35.9486C109.136 35.9486 108.491 35.8845 107.523 35.8203C107.523 39.9287 107.588 40.8274 107.781 44.7432L107.523 45H105.137L104.879 44.7432C104.943 40.2496 105.008 35.7561 105.008 31.2625C105.008 23.2382 104.879 20.3495 104.685 16.3695L104.879 16.1127L107.201 15.7917L107.459 16.0485L107.394 17.8459C108.491 16.9472 110.232 15.535 113.328 15.535C118.682 15.535 122.036 19.7076 122.036 25.1641C122.036 27.2183 121.456 29.8502 119.843 31.9044C118.037 34.2796 115.328 35.9486 109.91 35.9486ZM112.941 17.9101C111.716 17.9101 110.426 18.2311 109.265 18.8088C108.362 19.2582 107.975 19.6434 107.394 20.2211V33.766C108.362 33.8944 108.878 33.8944 109.587 33.8944C111.845 33.8944 114.167 33.5735 116.038 32.2254C117.005 31.5835 119.327 29.5292 119.327 25.3566C119.392 22.1469 117.908 17.9101 112.941 17.9101ZM101.847 35.8845L99.7832 36.0128L99.5252 35.7561L99.4607 34.408C97.7192 35.6919 95.9132 36.3338 93.9136 36.3338C90.0436 36.3338 87.27 33.8944 87.27 30.0428C87.27 28.2454 87.9795 26.5121 89.2696 25.3566C91.0111 23.816 93.7846 23.3666 95.9777 22.9815L99.3962 22.4679V21.9543C99.3317 20.9272 99.3317 20.0285 99.0737 19.3866C98.8157 18.9372 97.9772 17.5892 95.2682 17.5892C92.6881 17.5892 91.4626 18.1669 89.7211 19.0656L89.3986 18.9372L89.5276 17.1398L89.7211 16.883C91.2691 16.2411 92.9461 15.5991 95.4617 15.5991C98.2352 15.5991 99.7832 16.4337 100.622 17.3966C101.783 18.6163 101.783 19.515 101.783 23.3024V25.6776C101.718 30.8773 101.783 31.9686 102.041 35.5635L101.847 35.8845ZM99.4607 24.4579L97.3322 24.7789C93.9136 25.4208 92.6236 25.7418 91.5916 26.5763C91.2691 26.8331 89.7856 27.9244 89.7856 29.9786C89.7856 31.9686 91.2046 34.3438 94.3652 34.3438C96.8807 34.3438 98.2352 33.3167 99.4607 32.2254V24.4579ZM83.1419 35.9486L82.9484 35.6919C83.0129 33.8944 83.0129 32.8673 83.0129 31.3267C83.0129 29.786 82.9484 24.3295 82.8839 22.2753C82.8194 21.3766 82.7549 19.9643 81.9164 19.0014C81.2714 18.2311 79.9814 17.6534 78.6269 17.6534C75.7243 17.6534 73.4023 19.3866 72.3058 20.2211C72.3703 26.7689 72.3703 28.3096 72.6283 35.5635L72.3703 35.8203L70.0482 35.8845L69.8547 35.6277C69.9192 33.5093 69.9192 32.5464 69.9192 30.8773C69.9192 28.8873 69.8547 26.8331 69.8547 24.7789C69.7902 20.3495 69.7902 19.3866 69.5322 16.3695L69.7257 16.1127L72.1123 15.7275L72.3703 15.9843L72.2413 17.9743C73.8538 16.9472 76.1113 15.4708 79.2719 15.4708C79.9814 15.4708 82.3034 15.4708 83.9805 17.2682C85.3995 18.8088 85.3995 20.6705 85.3995 23.6234L85.464 27.6034C85.5285 31.6476 85.5285 32.2896 85.722 35.5635L85.464 35.8203L83.1419 35.9486ZM61.5986 21.184C63.9206 22.2753 67.5972 23.9444 67.5972 28.6305C67.5972 32.5464 64.6946 36.398 58.5025 36.398C56.89 36.398 53.7294 36.0128 51.4719 34.408L51.2784 34.087L51.4074 31.7118L51.7944 31.6476C52.2459 32.097 52.6329 32.4822 53.3424 32.9315C54.826 33.8944 56.632 34.3438 58.438 34.3438C62.4371 34.3438 65.0171 31.9686 65.0171 28.7589C65.0171 25.7418 62.8886 24.4579 59.9215 23.174L56.8255 21.8902C54.3744 20.7347 51.0849 19.194 51.0849 15.0214C51.0849 12.8388 52.1169 10.6562 53.9874 9.37233C55.7935 8.15264 58.051 7.83167 59.9215 7.83167C63.3401 7.83167 65.4041 8.85877 66.3717 9.37233L66.6297 9.6933L66.3717 11.6191L65.9846 11.8117C64.6301 10.9772 62.9531 9.88588 59.7925 9.88588C54.3099 9.88588 53.5359 13.3524 53.5359 14.8288C53.5359 17.7817 55.987 18.873 58.696 19.9643L61.5986 21.184ZM40.4422 8.34522C38.1202 8.34522 36.2496 6.48359 36.2496 4.17261C36.2496 1.86163 38.1202 0 40.4422 0C42.7642 0 44.6348 1.86163 44.6348 4.17261C44.5703 6.48359 42.6997 8.34522 40.4422 8.34522ZM22.3174 40.6348C12.1262 40.6348 3.80557 32.3538 3.80557 22.2111C3.80557 12.0685 12.1262 3.85164 22.3174 3.85164C32.5086 3.85164 40.8292 12.1327 40.8292 22.2111C40.8292 32.3538 32.5086 40.6348 22.3174 40.6348ZM15.0288 36.1412C18.7053 36.1412 21.7369 33.1241 21.7369 29.465C21.7369 25.806 18.7053 22.7889 15.0288 22.7889C11.3522 22.7889 8.32064 25.806 8.32064 29.465C8.32064 33.1241 11.2877 36.1412 15.0288 36.1412ZM22.2529 8.40942C19.0923 9.17974 16.3188 10.592 14.4483 12.4536C12.6422 14.1869 11.8682 16.1127 12.3197 17.7817C12.7067 19.4508 14.2547 20.7347 16.5768 21.4408C20.3179 22.2111 23.2204 25.485 23.2204 29.465C23.2204 32.4822 21.5434 35.1141 19.0923 36.5264C20.1889 36.4622 21.2854 36.2696 22.3819 36.0128C25.5424 35.2425 28.316 33.766 30.1865 31.9686C31.9926 30.2354 32.7021 28.3096 32.3151 26.6405C31.9281 24.9715 30.38 23.6876 28.058 22.9815C24.3169 22.2753 21.4144 18.9372 21.4144 15.0214C21.4144 12.0043 23.0914 9.37233 25.5424 7.96006C24.4459 7.96006 23.3494 8.15264 22.2529 8.40942ZM29.606 8.28103C25.9295 8.28103 22.8979 11.2981 22.8979 14.9572C22.8979 18.6163 25.9295 21.6334 29.606 21.6334C33.2826 21.6334 36.3141 18.6163 36.3141 14.9572C36.3141 11.2981 33.2826 8.28103 29.606 8.28103ZM8.32064 40.1855C8.32064 42.4964 6.45011 44.3581 4.12807 44.3581C3.03155 44.3581 1.93503 43.9087 1.16102 43.1384C0.451508 42.368 0 41.3409 0 40.1855C0 39.0942 0.451508 38.0671 1.22552 37.2325C1.99953 36.4622 3.03155 36.0128 4.19257 36.0128C6.45011 36.077 8.32064 37.9387 8.32064 40.1855Z" fill="#FFFFFE"/>
</svg>
