<svg width="96" height="96" viewBox="0 0 96 96" fill="none" xmlns="http://www.w3.org/2000/svg">
<path d="M81.2681 17.1342C75.1493 14.2949 68.5879 12.2031 61.7276 11.005C61.6027 10.9819 61.4779 11.0397 61.4135 11.1553C60.5696 12.6731 59.6349 14.6532 58.9804 16.2096C51.6016 15.0924 44.2607 15.0924 37.0333 16.2096C36.3786 14.6186 35.4099 12.6731 34.5623 11.1553C34.4979 11.0435 34.3731 10.9858 34.2482 11.005C27.3916 12.1993 20.8302 14.2911 14.7077 17.1342C14.6547 17.1573 14.6093 17.1959 14.5792 17.2459C2.13357 36.0495 -1.2758 54.3908 0.39672 72.5048C0.404288 72.5934 0.453479 72.6782 0.521592 72.7321C8.73284 78.8304 16.6868 82.5326 24.4931 84.9865C24.6181 85.0251 24.7504 84.9789 24.8299 84.8748C26.6765 82.3246 28.3226 79.6356 29.7339 76.8079C29.8172 76.6423 29.7377 76.4458 29.5675 76.3803C26.9565 75.3787 24.4704 74.1575 22.0789 72.7706C21.8898 72.6589 21.8746 72.3853 22.0486 72.2543C22.5519 71.8729 23.0553 71.4761 23.5358 71.0755C23.6228 71.0023 23.7439 70.9869 23.8461 71.0331C39.5571 78.2872 56.5662 78.2872 72.0918 71.0331C72.194 70.9831 72.3152 70.9985 72.4059 71.0717C72.8866 71.4723 73.3898 71.8729 73.8969 72.2543C74.0709 72.3853 74.0595 72.6589 73.8704 72.7706C71.4789 74.1844 68.9928 75.3787 66.378 76.3765C66.2078 76.442 66.1321 76.6423 66.2154 76.8079C67.657 79.6317 69.3031 82.3206 71.1156 84.871C71.1913 84.9789 71.3275 85.0251 71.4524 84.9865C79.2965 82.5326 87.2505 78.8304 95.4617 72.7321C95.5337 72.6782 95.5791 72.5973 95.5867 72.5086C97.5883 51.5669 92.234 33.3759 81.3929 17.2497C81.3664 17.1959 81.3211 17.1573 81.2681 17.1342ZM32.0801 61.4753C27.35 61.4753 23.4525 57.0836 23.4525 51.6902C23.4525 46.2968 27.2744 41.9052 32.0801 41.9052C36.9235 41.9052 40.7832 46.3354 40.7075 51.6902C40.7075 57.0836 36.8856 61.4753 32.0801 61.4753ZM63.979 61.4753C59.249 61.4753 55.3516 57.0836 55.3516 51.6902C55.3516 46.2968 59.1733 41.9052 63.979 41.9052C68.8225 41.9052 72.6821 46.3354 72.6066 51.6902C72.6066 57.0836 68.8225 61.4753 63.979 61.4753Z" fill="black"/>
</svg>
