<svg width="257" height="250" viewBox="0 0 257 250" fill="none" xmlns="http://www.w3.org/2000/svg">
<path fill-rule="evenodd" clip-rule="evenodd" d="M211.5 0H45.8999C20.8 0 0.5 20.3 0.5 45.4V204.6C0.5 229.7 20.8 250 45.8999 250H211.5C236.6 250 256.9 229.7 256.9 204.6V45.4C256.9 20.3 236.6 0 211.5 0ZM135.1 176.7H67.3999C66.2 176.7 65.7 176.1 65.7 174.8V65.6C65.5999 64.9 66.0999 64.2 66.8999 64.1H67.3H88.2C88.7 64.0001 89.3999 64.4 89.3999 65.0001V65.3V155H138.8C139.9 155 140.2 155.5 140 156.5L136.9 175.1C136.9 175.6 136.6 176.1 136.3 176.4C135.9 176.6 135.5 176.7 135.1 176.7ZM152.2 91.2H170.9C172 91.2 172.8 91.9 173.1 92.9C173.5 93.6 173.8 94.5 174 95.4C174.2 96.5 174.4 97.6 174.5 98.7C174.6 99.9 174.7 101.2 174.7 102.5C177.9 98.8 181.8 95.7 186.1 93.3C191 90.6 196.5 89.3 202 89.5C202.7 89.4 203.4 89.9 203.5 90.7V91.1V112C203.5 112.9 203 113.2 201.8 113.2C194.9 112.8 187.9 114.1 181.6 116.8C179.5 117.8 177.4 119 175.8 120.8V175.3C175.8 176.4 175.4 176.8 174.4 176.8H153.6C152.7 176.9 152 176.4 151.9 175.5V175.1V115.9C151.9 113.3 151.9 110.7 151.8 107.9C151.75 106.514 151.726 105.128 151.701 103.755C151.676 102.353 151.65 100.964 151.6 99.6C151.5 97.2 151.3 94.9 151 92.5C150.9 92 151.2 91.4 151.7 91.3C151.9 91.1 152 91.1 152.2 91.2Z" fill="black"/>
</svg>
