<svg width="241" height="234" viewBox="0 0 241 234" fill="none" xmlns="http://www.w3.org/2000/svg">
<path fill-rule="evenodd" clip-rule="evenodd" d="M198 0H43C19.5 0 0.5 19 0.5 42.5V191.5C0.5 215 19.5 234 43 234H198C221.5 234 240.5 215 240.5 191.5V42.5C240.5 19 221.5 0 198 0ZM57.5 163.9V61C57.5 60.3 57.8 59.9 58.5 59.9C60.2 59.9 61.8 59.9 64.1001 59.8C65.3357 59.7485 66.5977 59.7236 67.8999 59.6978L67.9058 59.6976C69.1311 59.6733 70.3921 59.6484 71.7 59.6C73.0959 59.5483 74.5454 59.5233 76.0486 59.4974C76.947 59.482 77.8645 59.4662 78.801 59.4441C79.3279 59.4317 79.8608 59.4174 80.3999 59.4C83.5 59.3 86.5 59.3 89.5 59.3C97.7 59.3 104.5 60.3 110.1 62.4C115.1 64.1 119.7 66.9 123.5 70.6C126.7 73.8 129.2 77.7 130.8 82C132.3 86.2 133.1 90.5 133.1 95C133.1 103.6 131.1 110.7 127.1 116.3C123.1 121.9 117.5 126.1 111 128.5C104.2 131 96.7 131.9 88.5 131.9C86.1001 131.9 84.5 131.9 83.5 131.8C82.5 131.7 81.1001 131.7 79.2 131.7V163.8C79.3 164.5 78.8 165.1 78.1001 165.2H77.7H58.7C57.8999 165.2 57.5 164.8 57.5 163.9ZM79.3 79.3V112.9L79.5974 112.921C80.8845 113.014 82.0854 113.1 83.2 113.1H88.5C92.3999 113.1 96.3 112.5 100 111.3C103.2 110.4 106 108.5 108.2 106C110.3 103.5 111.3 100.1 111.3 95.7C111.4 92.6 110.6 89.5 109 86.8C107.3 84.2 104.9 82.2 102 81.1C98.3 79.6 94.3 79 90.2 79.1C87.6001 79.1 85.3 79.1 83.3999 79.2C81.3999 79.1 80 79.2 79.3 79.3ZM147.5 85.2H165C166 85.2 166.8 85.9 167.1 86.8C167.4 87.6 167.6 88.4 167.7 89.3C167.9 90.3 168.1 91.4 168.2 92.4C168.3 93.5 168.4 94.7 168.4 96C171.4 92.5 175 89.6 179.1 87.4C183.7 84.8 189 83.5 194.3 83.5C195 83.4 195.6 83.9 195.7 84.6V85V104.5C195.7 105.3 195.2 105.6 194.1 105.6C190.5 105.5 186.8 105.8 183.3 106.6C180.4 107.2 177.6 108.1 174.9 109.3C173 110.2 171.2 111.4 169.8 113V164C169.8 165 169.4 165.4 168.5 165.4H148.8C148 165.5 147.3 165 147.2 164.2V163.8V108.4C147.2 106 147.2 103.5 147.1 100.9C147.05 99.6 147.025 98.3 147 96.9999C146.975 95.7 146.95 94.4 146.9 93.1C146.9 90.8897 146.716 88.7718 146.523 86.5688L146.5 86.3C146.4 85.8 146.7 85.3 147.2 85.2C147.2 85.1 147.4 85.1 147.5 85.2Z" fill="black"/>
</svg>
