<svg width="320" height="320" viewBox="0 0 320 320" fill="none" xmlns="http://www.w3.org/2000/svg">
<path d="M160 0C116.551 0 111.104 0.276254 94.0401 0.978483C77.0114 1.7563 65.4044 4.42091 55.2288 8.37762C44.7077 12.4648 35.7492 17.9595 26.8553 26.854C17.961 35.7485 12.5175 44.658 8.42954 55.1784C4.47352 65.3549 1.75777 77.0094 0.98099 94.0381C0.20068 111.102 0 116.549 0 159.998C0 203.449 0.200616 208.894 0.98099 225.957C1.75879 242.986 4.47352 254.593 8.42954 264.769C12.5175 275.29 17.961 284.199 26.8553 293.094C35.7492 301.988 44.7077 307.478 55.2288 311.568C65.4044 315.522 77.0114 318.239 94.0401 319.017C111.104 319.795 116.551 319.945 160 319.945C203.449 319.945 208.896 319.695 225.96 319.017C242.988 318.239 254.645 315.522 264.82 311.568C275.341 307.478 284.251 301.988 293.145 293.094C302.039 284.199 307.482 275.29 311.57 264.769C315.526 254.593 318.242 242.986 319.019 225.957C319.799 208.894 320 203.449 320 159.998C320 116.549 319.799 111.102 319.019 94.0381C318.241 77.0094 315.526 65.3549 311.57 55.1784C307.482 44.658 302.039 35.7485 293.145 26.854C284.251 17.9595 275.341 12.4648 264.82 8.37762C254.645 4.42091 242.988 1.7563 225.96 0.978483C208.896 0.20068 203.449 0 160 0ZM160 28.8136C202.718 28.8136 207.766 29.0642 224.637 29.7419C240.234 30.4445 248.745 33.0889 254.382 35.2793C261.85 38.1823 267.161 41.6397 272.759 47.2373C278.358 52.835 281.815 58.1466 284.716 65.6134C286.906 71.2512 289.541 79.7618 290.254 95.3578C291.021 112.228 291.184 117.279 291.184 159.995C291.184 202.714 291.009 207.765 290.254 224.633C289.541 240.231 286.906 248.692 284.716 254.329C281.815 261.796 278.358 267.153 272.759 272.753C267.161 278.351 261.85 281.808 254.382 284.711C248.745 286.894 240.234 289.491 224.637 290.201C207.769 290.979 202.721 291.129 160 291.129C117.279 291.129 112.231 290.879 95.3634 290.201C79.7655 289.498 71.3041 286.902 65.6666 284.711C58.1987 281.808 52.839 278.351 47.2411 272.753C41.6435 267.153 38.1865 261.796 35.2841 254.329C33.0937 248.692 30.5077 240.231 29.7956 224.633C29.0278 207.765 28.8647 202.714 28.8647 159.995C28.8647 117.279 29.0404 112.228 29.7956 95.3578C30.5082 79.7618 33.0937 71.2512 35.2841 65.6134C38.1865 58.1466 41.6435 52.835 47.2411 47.2373C52.839 41.6397 58.1987 38.1823 65.6666 35.2793C71.3041 33.0965 79.7655 30.4545 95.3634 29.7419C112.234 28.9642 117.282 28.8136 160 28.8136ZM245.415 55.3741C234.812 55.3741 226.205 63.98 226.205 74.5831C226.205 85.1862 234.812 93.7922 245.415 93.7922C256.018 93.7922 264.624 85.1862 264.624 74.5831C264.624 63.98 256.018 55.3741 245.415 55.3741ZM160 77.8173C114.628 77.8173 77.8687 114.627 77.8687 159.998C77.8687 205.371 114.628 242.128 160 242.128C205.372 242.128 242.18 205.371 242.18 159.998C242.18 114.627 205.372 77.8173 160 77.8173ZM160 106.681C189.452 106.681 213.317 130.547 213.317 159.998C213.317 189.451 189.452 213.314 160 213.314C130.548 213.314 106.683 189.451 106.683 159.998C106.683 130.547 130.548 106.681 160 106.681Z" fill="black"/>
</svg>
