<svg width="46" height="46" viewBox="0 0 46 46" fill="none" xmlns="http://www.w3.org/2000/svg">
<path fill-rule="evenodd" clip-rule="evenodd" d="M26.6982 36.5799C25.2714 37.0697 23.7177 36.3106 23.2275 34.8834C22.7378 33.4566 23.4973 31.9034 24.9241 31.4132C26.3504 30.923 27.9045 31.6825 28.3947 33.1093C28.8845 34.5361 28.125 36.0902 26.6982 36.5799ZM13.1633 43.1245L2.87503 13.1627L10.2755 10.6218C16.7518 8.80985 26.0615 8.15671 30.2766 20.4313C31.9466 25.2944 31.7253 29.0645 30.4646 32.0043C29.4249 29.5939 26.6904 28.352 24.1664 29.2187C21.5168 30.1284 20.1069 33.0139 21.0166 35.663C21.5365 37.1778 22.7026 38.2842 24.1007 38.7872C22.7624 39.5868 21.3822 40.2254 20.0873 40.747L13.1633 43.1245ZM43.125 32.8368L29.4924 37.5179C33.0393 33.9194 35.3621 28.3452 32.4172 19.7694C29.4714 11.1896 24.4471 8.13663 19.5542 7.43602L32.8367 2.875L43.125 32.8368ZM34.2425 0L0 11.7579L11.7575 46L46 34.2421L34.2425 0Z" fill="url(#paint0_linear_51_28)"/>
<defs>
<linearGradient id="paint0_linear_51_28" x1="2.14314e-05" y1="951.06" x2="4600" y2="3467.97" gradientUnits="userSpaceOnUse">
<stop stop-color="#EA0069"/>
<stop offset="1" stop-color="#FC6767"/>
</linearGradient>
</defs>
</svg>
