<svg width="114" height="38" viewBox="0 0 114 38" fill="none" xmlns="http://www.w3.org/2000/svg">
<path d="M10.3222 37.2947C13.3484 37.2947 15.1033 36.8434 16.8858 35.2777C18.7098 33.712 19.6218 32.0334 19.6218 29.6214C19.456 26.1515 18.5716 24.1626 15.8356 22.8508C14.8822 22.3853 14.0116 22.0045 13.224 21.7929C12.4778 21.539 11.5658 21.2851 10.4465 20.9889C6.42545 19.9733 4.61527 18.6615 4.61527 15.9532C4.61527 13.2873 6.21818 11.4677 10.1564 11.4677C13.5971 11.4677 15.8909 13.6681 15.8909 16.8418H19.3454C19.3454 11.8062 15.96 8.46326 10.1564 8.46326C7.21309 8.46326 4.89163 9.18264 3.10909 10.6214C1.368 12.0178 0.842909 13.8374 0.842909 16.0379C0.967273 19.3808 2.11418 21.2851 4.72582 22.5546C6.54982 23.4432 7.91782 23.8664 10.0735 24.3742C14.1775 25.3474 15.808 26.8708 15.808 29.8753C15.808 33.049 14.3433 34.248 10.3222 34.248C5.55491 34.248 3.77236 33.2183 3.77236 29.029H0C0 34.9955 3.44073 37.2947 10.3222 37.2947ZM34.8356 25.9822H40.9709C40.9709 31.5256 40.6254 34.657 35.8581 34.657C30.7178 34.657 27.7331 30.7216 27.7331 23.0624C27.7331 15.4878 29.2808 11.7216 34.3796 11.7216C38.1934 11.7216 40.9294 13.9221 41.1367 17.7728H44.992C44.7847 14.853 43.7484 12.5679 41.8 10.9176C39.8931 9.26727 37.4887 8.46326 34.5454 8.46326C30.7732 8.46326 29.0527 9.54232 26.7727 12.0813C24.4927 14.578 23.8364 18.3229 23.8364 23.0624C23.8364 27.7595 24.9142 31.441 27.1113 34.0646C29.3084 36.6882 32.2102 38 35.8581 38C39.2988 38 40.888 37.0267 42.8364 34.8263C43.2321 34.3887 43.6214 33.9176 43.8727 33.4157C44.8852 31.3939 44.7847 28.8721 44.7847 26.0245V22.8085H34.8356V25.9822ZM71.9651 36.9421L62.1818 8.73118H58.8793L48.7644 36.9421H52.744L55.1414 29.713H65.4913L67.9854 36.9421H71.9651ZM60.4545 14.197L64.4964 26.5393H56.1363L60.4545 14.197ZM79.7309 36.9421V15.1585L88.4363 36.9421H91.1585L99.4909 15.7839V36.942H103.395V8.71714H98.6272L89.6454 31.6526L80.8363 8.71716H76.0691L76 36.9421H79.7309ZM114 36.942V8.71714H110.269V36.942H114Z" fill="#FFFFFE"/>
<path d="M112.618 6.70007H111.236V1.41054H93.2725V0H112.618V6.70007Z" fill="#EF4135"/>
<path d="M74.2725 0H93.2725V1.41054H74.2725V0Z" fill="white"/>
<path d="M74.2727 1.41054V0H55.6182V1.41054H74.2727Z" fill="#0055A4"/>
</svg>
