<svg width="18" height="18" viewBox="0 0 18 18" fill="none" xmlns="http://www.w3.org/2000/svg">
<mask id="path-1-inside-1_112_122" fill="white">
<path d="M0.707107 9.89949C0.316582 9.50897 0.316583 8.8758 0.707107 8.48528L8.48528 0.707102C8.87581 0.316577 9.50897 0.316577 9.89949 0.707102L17.6777 8.48528C18.0682 8.8758 18.0682 9.50897 17.6777 9.89949L9.89949 17.6777C9.50897 18.0682 8.87581 18.0682 8.48528 17.6777L0.707107 9.89949Z"/>
</mask>
<path d="M0 9.19238L9.19239 -5.1856e-06L0 9.19238ZM17.6777 8.48528C18.8492 9.65685 18.8492 11.5563 17.6777 12.7279L11.3137 19.0919C10.1421 20.2635 8.24264 20.2635 7.07107 19.0919L9.19239 15.5563L16.2635 8.48528C16.654 8.09475 16.9706 7.77817 16.9706 7.77817L17.6777 8.48528ZM11.3137 19.0919C10.1421 20.2635 8.24264 20.2635 7.07107 19.0919L0.707107 12.7279C-0.464466 11.5563 -0.464466 9.65685 0.707107 8.48528L1.41421 7.77817C1.41421 7.77817 1.7308 8.09475 2.12132 8.48528L9.19239 15.5563L11.3137 19.0919ZM9.19239 -5.1856e-06L18.3848 9.19238L9.19239 -5.1856e-06Z" fill="black" mask="url(#path-1-inside-1_112_122)"/>
</svg>
